<svg width="177" height="177" viewBox="0 0 177 177" fill="none" xmlns="http://www.w3.org/2000/svg">
<path fill-rule="evenodd" clip-rule="evenodd" d="M177 88.5C177 100.651 174.551 112.231 170.12 122.771C169.375 122.969 168.288 123.191 166.86 123.437C165.468 123.685 163.927 123.81 162.237 123.81C160 123.81 157.961 123.462 156.122 122.766C154.282 122.07 152.791 120.777 151.647 118.888C150.554 116.949 150.007 114.165 150.007 110.536V51.3239H168.836C174.076 62.6271 177 75.222 177 88.5ZM140.536 143.497C145.003 145.341 149.927 146.358 155.306 146.547C139.081 165.205 115.168 177 88.5 177C79.628 177 71.061 175.695 62.9805 173.265L62.8621 125.221L62.829 111.788L49.3954 111.755L3.05595 111.64C1.06314 104.264 0 96.5063 0 88.5C0 39.6228 39.6228 0 88.5 0C100.743 0 112.406 2.48623 123.011 6.98136V30.4432H106.754V51.3239H123.011V115.01C122.961 122.169 124.502 128.135 127.635 132.908C130.816 137.68 135.117 141.21 140.536 143.497ZM93.7062 67.4436L20.3774 67.2629L20.3108 94.2628L80.2061 94.4105L80.3537 154.306L107.354 154.239L107.173 80.9103L107.14 67.4768L93.7062 67.4436Z" fill="#4E4E4E"/>
</svg>
